<svg width="1440" height="1024" viewBox="0 0 1440 1024" fill="none" xmlns="http://www.w3.org/2000/svg">
<g clip-path="url(#clip0_0_1)">
<path d="M1020.66 32.9412C1100.15 57.484 1139.14 156.982 1175.06 245.867C1211.75 334.752 1243.86 414.35 1240.8 491.295C1236.98 568.903 1197.23 644.522 1149.84 716.824C1103.21 789.789 1048.94 858.774 973.27 913.83C898.362 969.548 801.288 1010.01 714.914 994.755C628.541 980.161 552.104 909.186 459.616 862.754C367.892 815.658 260.881 792.442 219.605 734.733C178.33 677.688 203.554 585.486 234.128 508.541C264.703 432.26 301.392 370.571 343.433 314.189C385.473 258.47 432.863 207.394 494.013 173.565C555.162 139.072 630.07 122.489 727.144 89.9867C823.454 56.8207 941.931 7.73502 1020.66 32.9412Z" fill="#42BCC4"/>
<rect width="16.7238" height="44.8188" rx="8.36189" transform="matrix(0.942654 -0.333772 0.333842 0.942629 863.687 638.385)" fill="white"/>
<rect width="16.7239" height="44.8209" rx="8.36193" transform="matrix(-0.333842 -0.942629 0.942654 -0.333772 900.444 692.075)" fill="white"/>
<rect width="16.7239" height="44.8209" rx="8.36193" transform="matrix(0.333842 0.942629 -0.942654 0.333772 879.095 681.893)" fill="white"/>
<rect width="16.7238" height="44.8188" rx="8.36189" transform="matrix(0.942654 -0.333772 0.333842 0.942629 885.572 700.179)" fill="white"/>
<path d="M595.404 732.103C720.238 732.103 821.436 630.914 821.436 506.091C821.436 381.268 720.238 280.079 595.404 280.079C470.569 280.079 369.371 381.268 369.371 506.091C369.371 630.914 470.569 732.103 595.404 732.103Z" fill="#E6E6E6"/>
<path d="M536.929 586.977C539.718 632.579 573.669 667.608 612.759 665.218C651.85 662.827 681.278 623.922 678.489 578.32C675.699 532.718 641.749 497.689 602.658 500.079C563.567 502.47 534.139 541.376 536.929 586.977Z" fill="#CBCBCB"/>
<path d="M499.377 483.933C514.063 483.933 525.969 472.029 525.969 457.343C525.969 442.658 514.063 430.754 499.377 430.754C484.69 430.754 472.785 442.658 472.785 457.343C472.785 472.029 484.69 483.933 499.377 483.933Z" fill="#CBCBCB"/>
<path d="M692.908 466.207C703.515 466.207 712.113 457.609 712.113 447.003C712.113 436.397 703.515 427.799 692.908 427.799C682.301 427.799 673.703 436.397 673.703 447.003C673.703 457.609 682.301 466.207 692.908 466.207Z" fill="#CBCBCB"/>
<path d="M1032.7 300.76C1049.83 300.76 1063.72 286.871 1063.72 269.739C1063.72 252.606 1049.83 238.717 1032.7 238.717C1015.56 238.717 1001.67 252.606 1001.67 269.739C1001.67 286.871 1015.56 300.76 1032.7 300.76Z" fill="#E6E6E6"/>
<rect width="11.6137" height="31.1241" rx="5.80687" transform="matrix(0.942654 -0.333772 0.333842 0.942629 803.502 149.57)" fill="white"/>
<rect width="11.6138" height="31.1256" rx="5.80689" transform="matrix(-0.333842 -0.942629 0.942654 -0.333772 829.028 186.855)" fill="white"/>
<rect width="11.6138" height="31.1256" rx="5.80689" transform="matrix(0.333842 0.942629 -0.942654 0.333772 814.202 179.785)" fill="white"/>
<rect width="11.6137" height="31.1241" rx="5.80687" transform="matrix(0.942654 -0.333772 0.333842 0.942629 818.7 192.483)" fill="white"/>
<path d="M704.727 888.687C721.861 888.687 735.751 874.798 735.751 857.666C735.751 840.533 721.861 826.644 704.727 826.644C687.592 826.644 673.703 840.533 673.703 857.666C673.703 874.798 687.592 888.687 704.727 888.687Z" fill="#E6E6E6"/>
<rect width="11.6137" height="31.1241" rx="5.80687" transform="matrix(0.942654 -0.333772 0.333842 0.942629 989.647 447.974)" fill="white"/>
<rect width="11.6138" height="31.1256" rx="5.80689" transform="matrix(-0.333842 -0.942629 0.942654 -0.333772 1015.17 485.259)" fill="white"/>
<rect width="11.6138" height="31.1256" rx="5.80689" transform="matrix(0.333842 0.942629 -0.942654 0.333772 1000.35 478.188)" fill="white"/>
<rect width="11.6137" height="31.1241" rx="5.80687" transform="matrix(0.942654 -0.333772 0.333842 0.942629 1004.84 490.886)" fill="white"/>
</g>
<defs>
<clipPath id="clip0_0_1">
<rect width="1043" height="972" fill="white" transform="translate(198 26)"/>
</clipPath>
</defs>
</svg>
